<?xml version="1.0" standalone="no"?>
<!DOCTYPE svg PUBLIC "-//W3C//DTD SVG 20010904//EN"
 "http://www.w3.org/TR/2001/REC-SVG-20010904/DTD/svg10.dtd">
<svg version="1.0" xmlns="http://www.w3.org/2000/svg"
 width="64.000000pt" height="64.000000pt" viewBox="0 0 64.000000 64.000000"
 preserveAspectRatio="xMidYMid meet">

<g transform="translate(0.000000,64.000000) scale(0.100000,-0.100000)"
fill="#000000" stroke="none">
<path d="M226 484 c-3 -9 -6 -121 -6 -250 l0 -234 100 0 100 0 0 234 c0 129
-3 241 -6 250 -9 23 -179 23 -188 0z m164 -44 l0 -30 -70 0 -70 0 0 30 0 30
70 0 70 0 0 -30z"/>
<path d="M83 402 c-6 -4 -17 -20 -22 -35 -14 -37 -14 -275 0 -315 11 -33 49
-52 100 -52 l29 0 0 205 0 205 -47 0 c-27 0 -53 -4 -60 -8z"/>
<path d="M450 205 l0 -205 29 0 c51 0 89 19 100 52 14 40 14 278 0 315 -14 37
-25 43 -81 43 l-48 0 0 -205z"/>
</g>
</svg>
