<?xml version="1.0" standalone="no"?>
<!DOCTYPE svg PUBLIC "-//W3C//DTD SVG 20010904//EN"
 "http://www.w3.org/TR/2001/REC-SVG-20010904/DTD/svg10.dtd">
<svg version="1.0" xmlns="http://www.w3.org/2000/svg"
 width="64.000000pt" height="64.000000pt" viewBox="0 0 64.000000 64.000000"
 preserveAspectRatio="xMidYMid meet">

<g transform="translate(0.000000,64.000000) scale(0.100000,-0.100000)"
fill="#000000" stroke="none">
<path d="M384 500 c-47 -19 -67 -77 -42 -123 26 -50 77 -61 121 -27 49 39 42
116 -14 145 -32 17 -36 17 -65 5z"/>
<path d="M173 456 c-22 -19 -28 -32 -28 -65 0 -48 24 -77 72 -87 27 -5 37 -1
63 24 40 41 41 83 1 123 -36 35 -70 37 -108 5z"/>
<path d="M357 302 c-16 -7 -15 -11 12 -37 17 -15 34 -43 37 -62 6 -33 6 -33
64 -33 89 0 117 41 63 92 -46 44 -122 61 -176 40z"/>
<path d="M145 265 c-61 -31 -81 -77 -47 -108 15 -14 40 -17 126 -17 59 0 116
5 127 10 41 23 16 86 -48 119 -31 16 -123 14 -158 -4z"/>
</g>
</svg>
