<?xml version="1.0" standalone="no"?>
<!DOCTYPE svg PUBLIC "-//W3C//DTD SVG 20010904//EN"
 "http://www.w3.org/TR/2001/REC-SVG-20010904/DTD/svg10.dtd">
<svg version="1.0" xmlns="http://www.w3.org/2000/svg"
 width="60.000000pt" height="60.000000pt" viewBox="0 0 60.000000 60.000000"
 preserveAspectRatio="xMidYMid meet">

<g transform="translate(0.000000,60.000000) scale(0.100000,-0.100000)"
fill="#000000" stroke="none">
<path d="M272 528 c-6 -6 -12 -18 -12 -25 0 -7 -6 -13 -14 -13 -23 0 -78 -51
-92 -87 -8 -18 -14 -59 -14 -92 0 -33 -4 -71 -10 -85 l-10 -26 181 0 c139 0
178 3 173 12 -4 7 -11 51 -14 99 -5 75 -10 93 -35 125 -15 20 -40 42 -55 47
-15 6 -31 20 -36 31 -11 24 -44 32 -62 14z"/>
<path d="M85 150 c-13 -22 9 -30 79 -30 l74 0 6 -30 c12 -63 100 -63 112 -1 6
30 7 30 83 33 60 2 76 6 76 18 0 13 -31 15 -212 18 -136 1 -214 -1 -218 -8z"/>
</g>
</svg>
